# xmcd CD database file
#
# Track frame offsets:
#	150
#	11195
#	23852
#	38542
#	53700
#	69447
#	84375
#	97960
#	112030
#	124775
#	134967
#	155065
#	186012
#	205282
#	224667
#	239032
#	258077
#	272732
#	287062
#
# Disc length: 4108 seconds
#
# Revision: 3
# Processed by: cddbd v1.5.2PL0 Copyright (c) Steve Scherf et al.
# Submitted via: CDex 1.79
#
DISCID=20100a13
DTITLE=The Best Of Bluebird Jazz - Swing 1
DYEAR=1996
DGENRE=Jazz
TTITLE0=Illinois Jacquet - Hot Rod
TTITLE1=Fats Waller - The Joint Is Jumpin'
TTITLE2=Dizzy Gillespie - Stay On It
TTITLE3=Erskine Hawkins - After Hours
TTITLE4=Coleman Hawkin With Mound City Blue Blowers - One Hour
TTITLE5=Jelly Roll Morton - Wolverine Blues
TTITLE6=Glenn Miller And His Orchestra - Keep 'Em Flying
TTITLE7=Johnny Hodges - Passion Flower
TTITLE8=Duke Ellington - Main Stem
TTITLE9=Artie Shaw And his Orchestra - Traffic Jam
TTITLE10=Al Cohn and Zoot Sims - Tenor for Two Please, Jack
TTITLE11=Henry 'Red' Allen - Algiers Bounce
TTITLE12=Woody Herman - Four Brothers
TTITLE13=Louis Armstrong - Back O' Town Blues
TTITLE14=Jelly Roll Morton - Black Bottom Stomp
TTITLE15=Bunny Bergian - The Prisoner's Song
TTITLE16=Tommy Dorsey and Frank Sinatra - Everything Happens To Me
TTITLE17=Duke Ellington - Perdido
TTITLE18=Sonny Rollins - Bluesongo
EXTD=YEAR: 1996
EXTT0=
EXTT1=
EXTT2=
EXTT3=
EXTT4=
EXTT5=
EXTT6=
EXTT7=
EXTT8=
EXTT9=
EXTT10=
EXTT11=
EXTT12=
EXTT13=
EXTT14=
EXTT15=
EXTT16=
EXTT17=
EXTT18=
PLAYORDER=
